<svg width="19" height="19" viewBox="0 0 19 19" fill="none" xmlns="http://www.w3.org/2000/svg">
<path d="M9.31729 1.13028C9.22632 1.17965 9.11653 1.26522 9.07575 1.32446C8.89381 1.5746 8.90322 1.36396 8.90322 5.16202V8.65071L5.5373 8.65729L2.16824 8.66717L2.01453 8.7659C1.92042 8.82844 1.82632 8.92717 1.76672 9.02591C1.68202 9.17401 1.67261 9.21351 1.67261 9.47351C1.67261 9.73352 1.68202 9.77301 1.76672 9.92112C1.82632 10.0199 1.92042 10.1186 2.01453 10.1811L2.16824 10.2799L5.5373 10.2897L8.90322 10.2963L8.90949 13.8278L8.9189 17.3626L9.01301 17.5238C9.07261 17.6226 9.16672 17.7213 9.26083 17.7838C9.40199 17.8727 9.43963 17.8826 9.68745 17.8826C9.93527 17.8826 9.97291 17.8727 10.1141 17.7838C10.2082 17.7213 10.3023 17.6226 10.3619 17.5238L10.456 17.3626L10.4654 13.8278L10.4717 10.2963L13.8376 10.2897L17.2067 10.2799L17.3604 10.1811C17.4545 10.1186 17.5486 10.0199 17.6082 9.92112C17.6929 9.77301 17.7023 9.73352 17.7023 9.47351C17.7023 9.21351 17.6929 9.17401 17.6082 9.02591C17.5486 8.92717 17.4545 8.82844 17.3604 8.7659L17.2067 8.66717L13.8376 8.65729L10.4717 8.65071L10.4654 5.11924L10.456 1.58447L10.3619 1.4232C10.2176 1.17965 10.02 1.06775 9.72196 1.05459C9.51492 1.04471 9.46159 1.05459 9.31729 1.13028Z" fill="white" stroke="white"/>
</svg>
