<svg width="21" height="16" viewBox="0 0 21 16" fill="none" xmlns="http://www.w3.org/2000/svg">
<g opacity="0.8" clip-path="url(#clip0_1075_1021)">
<path d="M17.5116 3.34819C17.1805 2.71304 16.4368 2.47419 15.8613 2.82161C15.7039 2.9139 14.4336 4.18961 12.4196 6.2959C10.6608 8.1199 9.20591 9.61819 9.18963 9.61819C9.17334 9.61819 7.71849 8.1199 5.95963 6.29047C3.94563 4.18961 2.67534 2.9139 2.51791 2.82161C2.0782 2.55561 1.44306 2.64247 1.10106 3.01161C0.759058 3.3699 0.666772 3.9779 0.9002 4.39047C0.965343 4.51533 2.70249 6.36104 4.75449 8.49447C7.63163 11.4856 8.54363 12.3976 8.70649 12.4628C8.97791 12.5713 9.40134 12.5713 9.67277 12.4628C9.83563 12.3976 10.7368 11.4965 13.6248 8.49447C15.6768 6.36104 17.4139 4.51533 17.4845 4.39047C17.6311 4.12447 17.6473 3.5979 17.5116 3.34819Z" fill="#0D0D0D"/>
</g>
<defs>
<clipPath id="clip0_1075_1021">
<rect width="20" height="15.7895" fill="white" transform="translate(0.187012 0.105225)"/>
</clipPath>
</defs>
</svg>
